<!-- SVG Sprite -->
<svg width="0" height="0" class="hidden">
  <symbol fill="currentColor" xmlns="http://www.w3.org/2000/svg" viewBox="0 0 24 24" id="FB">
    <path fill-rule="evenodd" clip-rule="evenodd" d="M24 12.0725C24 5.40566 18.6268 0 12 0C5.37321 0 0 5.40566 0 12.0725C0 18.0979 4.3875 23.0924 10.125 23.9988V15.5632H7.07733V12.0725H10.125V9.41274C10.125 6.38762 11.917 4.71526 14.6577 4.71526C15.9708 4.71526 17.3443 4.95133 17.3443 4.95133V7.92255H15.8304C14.3405 7.92255 13.8745 8.85278 13.8745 9.80887V12.0725H17.2023L16.6709 15.5632H13.875V24C19.6125 23.0939 24 18.0995 24 12.0725Z" fill="currentColor"></path>
  </symbol>
  <symbol fill="currentColor" xmlns="http://www.w3.org/2000/svg" viewBox="0 0 24 24" id="INST">
    <path d="M16.9998 1.99983C18.3248 2.00378 19.5944 2.53187 20.5312 3.46877C21.4682 4.40567 21.9963 5.67523 22.0002 7.00019V16.9999C21.9963 18.3249 21.4682 19.5944 20.5312 20.5313C19.5944 21.4682 18.3248 21.9962 16.9998 22.0002H7.00019C5.67523 21.9962 4.40566 21.4682 3.46877 20.5313C2.53187 19.5944 2.00378 18.3249 1.99983 16.9999V7.00019C2.00378 5.67523 2.53187 4.40567 3.46877 3.46877C4.40566 2.53187 5.67523 2.00378 7.00019 1.99983H16.9998ZM16.9998 0H7.00019C3.15 0 0 3.15 0 7.00019V16.9999C0 20.85 3.15 24 7.00019 24H16.9998C20.8501 24 24 20.85 24 16.9999V7.00019C24 3.15 20.8501 0 16.9998 0Z" fill="currentColor"></path>
    <path d="M18.4993 7.00059C18.2026 7.00059 17.9126 6.91261 17.6659 6.74779C17.4194 6.58297 17.2271 6.3487 17.1136 6.07461C17.0001 5.80051 16.9703 5.49892 17.0282 5.20795C17.0861 4.91697 17.2289 4.64969 17.4387 4.43992C17.6485 4.23015 17.9157 4.08727 18.2067 4.02939C18.4977 3.97153 18.7993 4.00123 19.0734 4.11476C19.3474 4.22828 19.5817 4.42054 19.7466 4.66722C19.9114 4.91389 19.9994 5.20391 19.9994 5.50059C19.9998 5.69768 19.9613 5.89293 19.886 6.07511C19.8108 6.25728 19.7003 6.42281 19.561 6.56219C19.4216 6.70156 19.2561 6.81204 19.0739 6.88726C18.8917 6.9625 18.6965 7.001 18.4993 7.00059ZM11.9995 8.00023C12.7907 8.00023 13.5641 8.23484 14.2219 8.67438C14.8797 9.11393 15.3925 9.73867 15.6952 10.4696C15.998 11.2006 16.0772 12.0049 15.9228 12.7808C15.7685 13.5568 15.3875 14.2695 14.8281 14.829C14.2686 15.3884 13.5559 15.7695 12.7799 15.9238C12.004 16.0781 11.1997 15.9989 10.4687 15.6962C9.73778 15.3933 9.11304 14.8806 8.67349 14.2228C8.23395 13.565 7.99934 12.7916 7.99934 12.0004C8.00047 10.9398 8.42229 9.92305 9.17222 9.17311C9.92216 8.42317 10.939 8.00136 11.9995 8.00023ZM11.9995 6.0004C10.8128 6.0004 9.6528 6.3523 8.6661 7.01159C7.67941 7.67088 6.91037 8.60795 6.45624 9.70432C6.00211 10.8007 5.8833 12.0071 6.1148 13.171C6.34632 14.3349 6.91777 15.4039 7.75688 16.243C8.59599 17.0821 9.66509 17.6537 10.829 17.8852C11.9929 18.1166 13.1993 17.9979 14.2956 17.5437C15.392 17.0896 16.3291 16.3206 16.9884 15.3339C17.6476 14.3472 17.9995 13.1872 17.9995 12.0004C17.9995 10.4091 17.3674 8.88299 16.2422 7.75777C15.1169 6.63255 13.5909 6.0004 11.9995 6.0004Z" fill="currentColor"></path>
  </symbol>
  <symbol fill="currentColor" xmlns="http://www.w3.org/2000/svg" viewBox="0 0 24 24" id="PIN">
    <path d="M12.0027 0C5.37442 0 0 5.37201 0 11.9973C0 16.9088 2.9578 21.1293 7.18553 22.9878C7.15338 22.1522 7.18018 21.1453 7.39451 20.2348C7.62492 19.26 8.93772 13.6951 8.93772 13.6951C8.93772 13.6951 8.5519 12.9292 8.5519 11.7992C8.5519 10.021 9.58072 8.6927 10.8667 8.6927C11.9598 8.6927 12.485 9.51217 12.485 10.4923C12.485 11.5903 11.783 13.2292 11.424 14.7502C11.1239 16.025 12.0616 17.0587 13.3208 17.0587C15.5928 17.0587 17.1253 14.1397 17.1253 10.6798C17.1253 8.05 15.3517 6.08436 12.1313 6.08436C8.49297 6.08436 6.22103 8.79982 6.22103 11.8313C6.22103 12.8757 6.53182 13.6149 7.01407 14.1826C7.23375 14.445 7.2659 14.5521 7.18553 14.852C7.12659 15.0716 6.99799 15.6019 6.93905 15.8161C6.85868 16.1215 6.61219 16.2285 6.33892 16.1161C4.66175 15.4305 3.87943 13.5988 3.87943 11.5314C3.87943 8.12498 6.75686 4.03839 12.4582 4.03839C17.0395 4.03839 20.0563 7.35371 20.0563 10.9101C20.0563 15.6179 17.4361 19.1315 13.578 19.1315C12.2814 19.1315 11.065 18.4298 10.647 17.6371C10.647 17.6371 9.95044 20.4008 9.8004 20.9364C9.54855 21.863 9.05024 22.7843 8.59477 23.5072C9.69961 23.833 10.8454 23.999 11.9973 24C18.6256 24 24 18.6279 24 12.0027C24 5.37737 18.631 0 12.0027 0Z" fill="currentColor"></path>
  </symbol>
  <symbol fill="currentColor" xmlns="http://www.w3.org/2000/svg" viewBox="0 0 24 24" id="TW">
    <path d="M24 4.3698C23.0997 4.77727 22.1472 5.04573 21.1724 5.16667C22.1968 4.54187 22.9672 3.54926 23.339 2.37501C22.3705 2.9649 21.3127 3.3788 20.2109 3.59897C19.7471 3.09247 19.189 2.68954 18.5709 2.41467C17.9529 2.13979 17.2875 1.99871 16.6155 2.00001C13.8944 2.00001 11.6925 4.26042 11.6925 7.04688C11.6905 7.43446 11.7332 7.8209 11.8195 8.19793C9.86833 8.10264 7.95775 7.58416 6.20998 6.67566C4.46221 5.76715 2.91574 4.48863 1.66949 2.92188C1.23228 3.68965 1.00106 4.56566 0.999998 5.45834C0.999998 7.20834 1.8765 8.75522 3.2 9.66146C2.41586 9.64208 1.64779 9.42589 0.960999 9.03125V9.09375C0.960999 11.5417 2.661 13.5781 4.911 14.0417C4.48789 14.1591 4.05188 14.2187 3.614 14.2188C3.30329 14.2193 2.99328 14.1879 2.6885 14.125C3.314 16.1302 5.1345 17.5886 7.29099 17.6302C5.53868 19.0369 3.3873 19.7973 1.175 19.7917C0.782308 19.7911 0.389982 19.7667 0 19.7187C2.25059 21.2157 4.86671 22.0076 7.53698 21.9999C16.605 21.9999 21.559 14.3072 21.559 7.63542C21.559 7.41668 21.5534 7.19792 21.5434 6.98438C22.5051 6.27191 23.3368 5.38653 24 4.3698Z" fill="currentColor"></path>
  </symbol>
</svg>
<!-- SVG References -->
<svg class="icon">
  <use xlink:href="#FB"></use>
</svg><svg class="icon">
  <use xlink:href="#INST"></use>
</svg><svg class="icon">
  <use xlink:href="#PIN"></use>
</svg><svg class="icon">
  <use xlink:href="#TW"></use>
</svg>